<?xml version="1.0" encoding="utf-8"?>
<!-- Generator: Adobe Illustrator 26.2.1, SVG Export Plug-In . SVG Version: 6.00 Build 0)  -->
<svg version="1.1" id="Layer_1" xmlns="http://www.w3.org/2000/svg" xmlns:xlink="http://www.w3.org/1999/xlink" x="0px" y="0px"
	 viewBox="0 0 595.28 841.89" style="enable-background:new 0 0 595.28 841.89;" xml:space="preserve">
<style type="text/css">
	.st0{fill:#ABFFFF;}
	.st1{fill:#5CB4D2;stroke:#231F20;stroke-miterlimit:10;}
	.st2{fill:#FFFFFF;}
	.st3{fill:#F9F871;stroke:#231F20;stroke-miterlimit:10;}
	.st4{fill:#808285;}
	.st5{fill:#6D6E71;}
	.st6{fill:#3F3B3C;}
</style>
<rect x="-0.5" y="-0.5" class="st0" width="596" height="415"/>
<path class="st1" d="M135.87,90.5H55.13C36,90.5,20.5,75,20.5,55.87v-0.75C20.5,36,36,20.5,55.13,20.5h80.75
	C155,20.5,170.5,36,170.5,55.13v0.75C170.5,75,155,90.5,135.87,90.5z"/>
<g>
	<g>
		<path d="M35.35,72.78V61.06H37v11.58L35.35,72.78z M37.57,72.93c-0.38,0-0.75-0.01-1.11-0.04c-0.36-0.03-0.73-0.07-1.11-0.11
			l0.64-1.52c0.28,0.13,0.58,0.21,0.91,0.23c0.33,0.02,0.66,0.04,0.99,0.04c0.99,0,1.76-0.3,2.31-0.9c0.54-0.6,0.82-1.45,0.82-2.54
			c0-0.75-0.17-1.33-0.5-1.73c-0.33-0.41-0.8-0.61-1.41-0.61c-1.41,0-2.11,0.79-2.11,2.38l-0.48-2.12h0.64
			c0.08-1.1,0.75-1.66,2.03-1.66c1.1,0,1.96,0.33,2.56,0.98c0.6,0.65,0.91,1.58,0.91,2.77c0,1.54-0.44,2.73-1.33,3.57
			C40.44,72.51,39.19,72.93,37.57,72.93z"/>
		<path d="M44.7,72.78v-1.45h3.31v1.45H44.7z M45.17,65.95v-1.45h4.34v1.45H45.17z M48.63,63.18c-0.32,0-0.59-0.11-0.82-0.34
			s-0.34-0.5-0.34-0.82c0-0.32,0.11-0.6,0.34-0.82c0.23-0.22,0.5-0.34,0.82-0.34c0.32,0,0.6,0.11,0.82,0.34
			c0.22,0.22,0.34,0.5,0.34,0.82c0,0.32-0.11,0.59-0.34,0.82C49.23,63.07,48.95,63.18,48.63,63.18z M47.86,72.78v-7.81h1.66v7.81
			H47.86z M49.36,72.78v-1.45h2.7v1.45H49.36z"/>
		<path d="M53.59,62.51v-1.45h2.58v1.45H53.59z M58.75,72.93c-0.96,0-1.65-0.26-2.08-0.78c-0.43-0.52-0.64-1.35-0.64-2.5v-8.59h1.66
			v8.52c0,0.44,0.04,0.79,0.12,1.07c0.08,0.28,0.25,0.48,0.49,0.61c0.24,0.13,0.6,0.2,1.07,0.2c0.43,0,0.98-0.1,1.66-0.3l0.19,1.45
			c-0.42,0.11-0.83,0.2-1.21,0.25C59.61,72.91,59.19,72.93,58.75,72.93z"/>
		<path d="M62.96,62.51v-1.45h2.58v1.45H62.96z M68.12,72.93c-0.96,0-1.65-0.26-2.08-0.78c-0.43-0.52-0.64-1.35-0.64-2.5v-8.59h1.66
			v8.52c0,0.44,0.04,0.79,0.12,1.07c0.08,0.28,0.25,0.48,0.49,0.61c0.24,0.13,0.6,0.2,1.07,0.2c0.43,0,0.98-0.1,1.66-0.3l0.19,1.45
			c-0.42,0.11-0.83,0.2-1.21,0.25C68.99,72.91,68.57,72.93,68.12,72.93z"/>
		<path d="M76.98,72.93c-1.41,0-2.5-0.37-3.27-1.11c-0.77-0.74-1.15-1.81-1.15-3.2c0-1.35,0.33-2.41,0.98-3.16
			c0.65-0.75,1.57-1.12,2.76-1.12c1.12,0,1.99,0.34,2.6,1.02c0.61,0.68,0.92,1.66,0.92,2.95c0,0.38-0.02,0.73-0.05,1.06h-5.81V68.1
			h4.36c0-0.74-0.18-1.32-0.53-1.71c-0.35-0.4-0.84-0.6-1.47-0.6c-0.7,0-1.25,0.24-1.64,0.72c-0.39,0.48-0.58,1.16-0.58,2.03
			c0,0.96,0.27,1.69,0.8,2.19c0.53,0.5,1.29,0.75,2.28,0.75c0.34,0,0.68-0.02,1.02-0.06c0.33-0.04,0.67-0.09,1.02-0.16l0.2,1.45
			c-0.49,0.09-0.94,0.15-1.34,0.18C77.65,72.92,77.29,72.93,76.98,72.93z"/>
		<path d="M85,72.93c-1.08,0-1.91-0.36-2.46-1.07c-0.56-0.71-0.84-1.76-0.84-3.15c0-1.44,0.28-2.53,0.84-3.27
			c0.56-0.74,1.38-1.11,2.46-1.11c0.62,0,1.12,0.15,1.51,0.44c0.39,0.29,0.62,0.7,0.68,1.22h0.64l-0.48,2.36
			c0-0.85-0.17-1.5-0.5-1.95c-0.34-0.44-0.83-0.66-1.48-0.66c-0.67,0-1.17,0.25-1.52,0.75s-0.52,1.24-0.52,2.22
			c0,0.93,0.17,1.63,0.52,2.1c0.34,0.47,0.85,0.71,1.52,0.71c0.65,0,1.14-0.22,1.48-0.66c0.34-0.44,0.5-1.09,0.5-1.95l0.56,2.36
			H87.2c-0.05,0.52-0.27,0.93-0.66,1.22C86.15,72.79,85.64,72.93,85,72.93z M87.53,72.85l-0.17-1.62V61.06h1.66v11.72L87.53,72.85z"
			/>
		<path d="M94.63,72.93c-0.63,0-1.22-0.05-1.77-0.15c-0.55-0.1-1.06-0.25-1.53-0.46l0.2-1.58c0.57,0.25,1.13,0.43,1.66,0.56
			c0.53,0.13,1.05,0.19,1.56,0.19c0.73,0,1.27-0.13,1.62-0.38c0.35-0.25,0.53-0.64,0.53-1.16c0-0.66-0.34-1.15-1.02-1.45l-1.92-0.88
			c-0.76-0.34-1.33-0.76-1.74-1.24c-0.4-0.48-0.61-1.09-0.61-1.8c0-0.97,0.29-1.72,0.88-2.25c0.58-0.53,1.41-0.8,2.48-0.8
			c0.74,0,1.4,0.11,1.98,0.33c0.57,0.22,1.12,0.58,1.66,1.07l-1.09,1.11c-0.46-0.38-0.89-0.65-1.29-0.82
			c-0.4-0.17-0.81-0.25-1.25-0.25c-0.54,0-0.95,0.13-1.25,0.39c-0.29,0.26-0.44,0.64-0.44,1.14c0,0.36,0.1,0.65,0.29,0.88
			c0.19,0.23,0.48,0.43,0.85,0.61l1.62,0.77c0.82,0.39,1.45,0.82,1.88,1.3c0.43,0.48,0.64,1.11,0.64,1.87
			c0,1.01-0.33,1.76-0.98,2.26C96.95,72.68,95.96,72.93,94.63,72.93z"/>
		<path d="M105.11,72.93c-1.41,0-2.5-0.37-3.27-1.11c-0.77-0.74-1.15-1.81-1.15-3.2c0-1.35,0.33-2.41,0.98-3.16
			c0.65-0.75,1.57-1.12,2.76-1.12c1.12,0,1.99,0.34,2.6,1.02c0.61,0.68,0.92,1.66,0.92,2.95c0,0.38-0.02,0.73-0.05,1.06h-5.81V68.1
			h4.36c0-0.74-0.18-1.32-0.53-1.71c-0.35-0.4-0.84-0.6-1.47-0.6c-0.7,0-1.25,0.24-1.64,0.72c-0.39,0.48-0.58,1.16-0.58,2.03
			c0,0.96,0.27,1.69,0.8,2.19c0.53,0.5,1.29,0.75,2.28,0.75c0.34,0,0.68-0.02,1.02-0.06c0.33-0.04,0.67-0.09,1.02-0.16l0.2,1.45
			c-0.49,0.09-0.94,0.15-1.34,0.18C105.78,72.92,105.42,72.93,105.11,72.93z"/>
		<path d="M109.7,72.78v-1.45h5.53v1.45H109.7z M110.01,65.95v-1.45h2.77l0.16,1.45H110.01z M111.54,72.78v-8.28h1.34l0.31,2.38
			v5.91H111.54z M113.2,69.21l-0.48-2.59h0.64c0.09-1.52,0.85-2.28,2.28-2.28c0.85,0,1.47,0.25,1.86,0.73
			c0.39,0.49,0.58,1.28,0.58,2.38h-1.64c0-0.6-0.09-1.04-0.27-1.3s-0.47-0.4-0.87-0.4c-0.7,0-1.23,0.3-1.57,0.9
			C113.37,67.25,113.2,68.1,113.2,69.21z"/>
		<path d="M122.04,72.78l-2.96-8.28h1.77l2.23,6.88h0.14l2.23-6.88h1.77l-2.96,8.28H122.04z"/>
		<path d="M129.07,72.78v-1.45h3.31v1.45H129.07z M129.54,65.95v-1.45h4.34v1.45H129.54z M133,63.18c-0.32,0-0.59-0.11-0.82-0.34
			s-0.34-0.5-0.34-0.82c0-0.32,0.11-0.6,0.34-0.82c0.23-0.22,0.5-0.34,0.82-0.34c0.32,0,0.6,0.11,0.82,0.34
			c0.22,0.22,0.34,0.5,0.34,0.82c0,0.32-0.11,0.59-0.34,0.82C133.6,63.07,133.33,63.18,133,63.18z M132.23,72.78v-7.81h1.66v7.81
			H132.23z M133.73,72.78v-1.45h2.7v1.45H133.73z"/>
		<path d="M142.68,72.93c-1.41,0-2.5-0.37-3.27-1.11c-0.77-0.74-1.15-1.81-1.15-3.2c0-1.35,0.36-2.41,1.09-3.16s1.76-1.12,3.11-1.12
			c0.81,0,1.5,0.15,2.07,0.45c0.58,0.3,0.99,0.72,1.23,1.27l-1.27,0.96c-0.23-0.38-0.53-0.67-0.9-0.88
			c-0.36-0.21-0.76-0.31-1.2-0.31c-0.78,0-1.39,0.24-1.82,0.71c-0.43,0.47-0.65,1.14-0.65,2.01c0,0.94,0.25,1.66,0.76,2.16
			c0.51,0.5,1.23,0.75,2.18,0.75c0.39,0,0.77-0.02,1.16-0.05c0.39-0.04,0.76-0.09,1.12-0.15l0.19,1.45
			c-0.43,0.09-0.87,0.16-1.32,0.19C143.56,72.92,143.12,72.93,142.68,72.93z"/>
		<path d="M151.98,72.93c-1.41,0-2.5-0.37-3.27-1.11c-0.77-0.74-1.15-1.81-1.15-3.2c0-1.35,0.33-2.41,0.98-3.16
			c0.65-0.75,1.57-1.12,2.76-1.12c1.12,0,1.99,0.34,2.6,1.02c0.61,0.68,0.92,1.66,0.92,2.95c0,0.38-0.02,0.73-0.05,1.06h-5.81V68.1
			h4.36c0-0.74-0.18-1.32-0.53-1.71c-0.35-0.4-0.84-0.6-1.47-0.6c-0.7,0-1.25,0.24-1.64,0.72c-0.39,0.48-0.58,1.16-0.58,2.03
			c0,0.96,0.27,1.69,0.8,2.19c0.53,0.5,1.29,0.75,2.28,0.75c0.34,0,0.68-0.02,1.02-0.06c0.33-0.04,0.67-0.09,1.02-0.16l0.2,1.45
			c-0.49,0.09-0.94,0.15-1.34,0.18C152.65,72.92,152.29,72.93,151.98,72.93z"/>
		<path d="M160,72.93c-0.62,0-1.16-0.02-1.61-0.05c-0.45-0.04-0.85-0.1-1.22-0.18l0.19-1.5c0.55,0.08,1.03,0.15,1.45,0.19
			c0.42,0.04,0.82,0.06,1.19,0.06c0.84,0,1.45-0.08,1.82-0.25c0.38-0.16,0.57-0.43,0.57-0.79c0-0.25-0.07-0.44-0.2-0.56
			c-0.13-0.12-0.34-0.22-0.61-0.29l-1.91-0.48c-0.82-0.21-1.42-0.47-1.8-0.77c-0.38-0.31-0.57-0.77-0.57-1.4
			c0-0.91,0.35-1.56,1.04-1.97s1.82-0.61,3.36-0.61c0.4,0,0.77,0.01,1.12,0.04c0.35,0.02,0.7,0.06,1.07,0.12l-0.17,1.44
			c-0.42-0.04-0.79-0.07-1.12-0.09c-0.32-0.02-0.64-0.02-0.95-0.02c-0.93,0-1.6,0.08-2.02,0.24c-0.42,0.16-0.62,0.42-0.62,0.78
			c0,0.24,0.09,0.41,0.26,0.52c0.17,0.11,0.43,0.2,0.79,0.29l1.53,0.38c0.87,0.21,1.51,0.49,1.91,0.84c0.4,0.35,0.61,0.86,0.61,1.52
			c0,0.89-0.33,1.54-0.98,1.94C162.48,72.73,161.43,72.93,160,72.93z"/>
	</g>
</g>
<g>
	<g>
		<path class="st2" d="M73.5,29.32c0.85-0.14,1.87-0.23,2.96-0.23c2,0,3.43,0.47,4.37,1.35c0.96,0.87,1.53,2.12,1.53,3.86
			c0,1.77-0.55,3.2-1.55,4.2c-1.02,1-2.69,1.56-4.78,1.56c-1,0-1.83-0.04-2.53-0.12V29.32z M74.9,38.86
			c0.35,0.06,0.87,0.07,1.4,0.07c2.99,0.01,4.59-1.66,4.59-4.57c0.02-2.55-1.42-4.16-4.36-4.16c-0.72,0-1.26,0.07-1.63,0.14V38.86z"
			/>
		<path class="st2" d="M85.55,29.17v10.79h-1.4V29.17H85.55z"/>
		<path class="st2" d="M90.36,39.96l-3.53-10.79h1.51l1.68,5.32c0.46,1.45,0.86,2.77,1.15,4.02h0.04c0.3-1.25,0.74-2.6,1.23-4.01
			l1.82-5.34h1.49l-3.85,10.79H90.36z"/>
	</g>
</g>
<g>
	<g>
		<path class="st3" d="M251.87,188.5H144.13c-19.12,0-34.63-15.5-34.63-34.63v-0.75c0-19.12,15.5-34.63,34.63-34.63h107.75
			c19.12,0,34.63,15.5,34.63,34.63v0.75C286.5,173,271,188.5,251.87,188.5z"/>
		<g>
			<g>
				<path d="M132.15,161.11c0.04-0.53,0.06-1.31,0.06-2v-9.37h1.4v4.87h0.03c0.49-0.87,1.39-1.42,2.64-1.42
					c1.92,0,3.27,1.6,3.27,3.94c0,2.78-1.76,4.15-3.49,4.15c-1.12,0-2.01-0.44-2.59-1.45h-0.04l-0.07,1.27H132.15z M133.61,158.01
					c0,0.17,0.02,0.35,0.06,0.51c0.26,0.98,1.09,1.65,2.11,1.65c1.48,0,2.35-1.2,2.35-2.98c0-1.56-0.8-2.89-2.31-2.89
					c-0.95,0-1.85,0.67-2.13,1.73c-0.04,0.17-0.08,0.36-0.08,0.59V158.01z"/>
				<path d="M142.89,151.18c0,0.48-0.34,0.88-0.9,0.88c-0.51,0-0.85-0.4-0.85-0.88c0-0.48,0.36-0.88,0.88-0.88
					C142.55,150.31,142.89,150.69,142.89,151.18z M141.32,161.11v-7.74h1.4v7.74H141.32z"/>
				<path d="M145.06,149.75h1.4v11.36h-1.4V149.75z"/>
				<path d="M148.84,149.75h1.4v11.36h-1.4V149.75z"/>
				<path d="M153.4,157.5c0.03,1.9,1.24,2.69,2.65,2.69c1.01,0,1.62-0.18,2.14-0.4l0.25,1c-0.49,0.23-1.35,0.49-2.58,0.49
					c-2.38,0-3.81-1.58-3.81-3.91c0-2.35,1.38-4.18,3.64-4.18c2.53,0,3.19,2.22,3.19,3.64c0,0.3-0.02,0.51-0.05,0.66H153.4z
					 M157.52,156.48c0.01-0.89-0.36-2.28-1.94-2.28c-1.44,0-2.05,1.3-2.16,2.28H157.52z"/>
				<path d="M167.31,149.75v9.37c0,0.69,0.03,1.46,0.06,2h-1.25l-0.07-1.34h-0.04c-0.43,0.86-1.36,1.51-2.63,1.51
					c-1.88,0-3.32-1.59-3.32-3.93c-0.01-2.59,1.59-4.16,3.48-4.16c1.19,0,1.99,0.56,2.34,1.17h0.03v-4.62H167.31z M165.91,156.52
					c0-0.18-0.02-0.42-0.06-0.6c-0.22-0.89-0.98-1.62-2.04-1.62c-1.46,0-2.33,1.28-2.33,2.98c0,1.57,0.78,2.88,2.3,2.88
					c0.94,0,1.8-0.64,2.06-1.69c0.05-0.19,0.07-0.38,0.07-0.6V156.52z"/>
				<path d="M169.52,159.42c0.62,0.39,1.53,0.7,2.49,0.7c1.42,0,2.26-0.74,2.26-1.84c0-1-0.58-1.59-2.04-2.13
					c-1.76-0.62-2.85-1.55-2.85-3.06c0-1.68,1.4-2.93,3.5-2.93c1.1,0,1.91,0.25,2.38,0.52l-0.39,1.14c-0.34-0.2-1.07-0.51-2.04-0.51
					c-1.48,0-2.04,0.88-2.04,1.61c0,1,0.66,1.5,2.15,2.07c1.83,0.72,2.75,1.6,2.75,3.18c0,1.65-1.22,3.11-3.78,3.11
					c-1.04,0-2.18-0.31-2.76-0.7L169.52,159.42z"/>
				<path d="M178.33,157.5c0.03,1.9,1.24,2.69,2.65,2.69c1.01,0,1.62-0.18,2.14-0.4l0.25,1c-0.49,0.23-1.35,0.49-2.58,0.49
					c-2.38,0-3.81-1.58-3.81-3.91c0-2.35,1.38-4.18,3.64-4.18c2.53,0,3.19,2.22,3.19,3.64c0,0.3-0.02,0.51-0.05,0.66H178.33z
					 M182.45,156.48c0.01-0.89-0.36-2.28-1.94-2.28c-1.44,0-2.05,1.3-2.16,2.28H182.45z"/>
				<path d="M185.56,155.78c0-0.91-0.02-1.69-0.06-2.41h1.23l0.05,1.52h0.05c0.36-1.04,1.21-1.69,2.16-1.69
					c0.15,0,0.26,0.01,0.39,0.04v1.32c-0.14-0.03-0.29-0.04-0.48-0.04c-0.99,0-1.69,0.75-1.88,1.8c-0.04,0.2-0.06,0.43-0.06,0.66
					v4.14h-1.4V155.78z"/>
				<path d="M191.33,153.37l1.52,4.34c0.26,0.72,0.46,1.36,0.63,2h0.04c0.18-0.64,0.4-1.29,0.65-2l1.51-4.34h1.47l-3.05,7.74h-1.34
					l-2.95-7.74H191.33z"/>
				<path d="M200.06,151.18c0,0.48-0.34,0.88-0.9,0.88c-0.51,0-0.85-0.4-0.85-0.88c0-0.48,0.36-0.88,0.88-0.88
					C199.72,150.31,200.06,150.69,200.06,151.18z M198.49,161.11v-7.74h1.4v7.74H198.49z"/>
				<path d="M207.75,160.83c-0.37,0.18-1.18,0.45-2.22,0.45c-2.33,0-3.86-1.59-3.86-3.96c0-2.39,1.63-4.13,4.16-4.13
					c0.83,0,1.58,0.21,1.96,0.41l-0.31,1.08c-0.35-0.18-0.87-0.37-1.65-0.37c-1.77,0-2.73,1.32-2.73,2.93c0,1.79,1.15,2.9,2.7,2.9
					c0.79,0,1.33-0.2,1.72-0.37L207.75,160.83z"/>
				<path d="M210.19,157.5c0.03,1.9,1.24,2.69,2.65,2.69c1.01,0,1.62-0.18,2.14-0.4l0.25,1c-0.49,0.23-1.35,0.49-2.58,0.49
					c-2.38,0-3.81-1.58-3.81-3.91c0-2.35,1.38-4.18,3.64-4.18c2.53,0,3.19,2.22,3.19,3.64c0,0.3-0.02,0.51-0.05,0.66H210.19z
					 M214.31,156.48c0.01-0.89-0.36-2.28-1.94-2.28c-1.44,0-2.05,1.3-2.16,2.28H214.31z"/>
				<path d="M225.68,160.63c-0.62,0.24-1.86,0.59-3.32,0.59c-1.64,0-2.98-0.41-4.03-1.43c-0.93-0.89-1.5-2.33-1.5-4.01
					c0-3.22,2.22-5.57,5.83-5.57c1.25,0,2.23,0.27,2.7,0.49l-0.35,1.14c-0.57-0.26-1.29-0.46-2.38-0.46c-2.62,0-4.33,1.63-4.33,4.33
					c0,2.73,1.64,4.35,4.16,4.35c0.91,0,1.53-0.13,1.85-0.29v-3.21h-2.18v-1.11h3.55V160.63z"/>
				<path d="M227.75,155.78c0-0.91-0.02-1.69-0.06-2.41h1.23l0.05,1.52h0.05c0.36-1.04,1.21-1.69,2.16-1.69
					c0.15,0,0.26,0.01,0.39,0.04v1.32c-0.14-0.03-0.29-0.04-0.48-0.04c-0.99,0-1.69,0.75-1.88,1.8c-0.04,0.2-0.06,0.43-0.06,0.66
					v4.14h-1.4V155.78z"/>
				<path d="M239.99,157.17c0,2.87-1.99,4.12-3.85,4.12c-2.1,0-3.72-1.53-3.72-3.99c0-2.59,1.7-4.11,3.84-4.11
					C238.49,153.2,239.99,154.81,239.99,157.17z M233.85,157.26c0,1.7,0.97,2.98,2.35,2.98c1.35,0,2.36-1.26,2.36-3.02
					c0-1.31-0.66-2.97-2.33-2.97C234.57,154.25,233.85,155.79,233.85,157.26z"/>
				<path d="M248.24,159c0,0.81,0.03,1.51,0.06,2.12h-1.24l-0.07-1.27h-0.04c-0.36,0.62-1.17,1.44-2.56,1.44
					c-1.21,0-2.67-0.68-2.67-3.39v-4.52h1.4v4.28c0,1.47,0.46,2.48,1.73,2.48c0.94,0,1.6-0.66,1.86-1.29
					c0.07-0.2,0.13-0.45,0.13-0.72v-4.74h1.4V159z"/>
				<path d="M250.58,155.89c0-0.99-0.03-1.79-0.06-2.52h1.26l0.08,1.32h0.03c0.56-0.94,1.49-1.5,2.75-1.5
					c1.87,0,3.29,1.58,3.29,3.93c0,2.79-1.71,4.17-3.52,4.17c-1.04,0-1.92-0.45-2.39-1.22h-0.03v4.21h-1.4V155.89z M251.98,157.96
					c0,0.2,0.02,0.39,0.06,0.57c0.25,0.98,1.11,1.65,2.1,1.65c1.49,0,2.35-1.22,2.35-3c0-1.54-0.81-2.87-2.3-2.87
					c-0.96,0-1.86,0.68-2.13,1.74c-0.05,0.18-0.09,0.39-0.09,0.57V157.96z"/>
			</g>
		</g>
	</g>
	<g>
		<g>
			<path class="st4" d="M189.55,129.07c0.85-0.14,1.87-0.23,2.96-0.23c2,0,3.43,0.47,4.37,1.35c0.96,0.87,1.53,2.12,1.53,3.86
				c0,1.77-0.55,3.2-1.55,4.2c-1.02,1-2.69,1.56-4.78,1.56c-1,0-1.83-0.04-2.53-0.12V129.07z M190.95,138.61
				c0.35,0.06,0.87,0.07,1.4,0.07c2.99,0.01,4.59-1.66,4.59-4.57c0.02-2.55-1.42-4.16-4.36-4.16c-0.72,0-1.26,0.07-1.63,0.14V138.61
				z"/>
			<path class="st4" d="M201.61,128.92v10.79h-1.4v-10.79H201.61z"/>
			<path class="st4" d="M206.41,139.71l-3.53-10.79h1.51l1.68,5.32c0.46,1.45,0.86,2.77,1.15,4.02h0.04c0.3-1.25,0.74-2.6,1.23-4.01
				l1.82-5.34h1.49l-3.85,10.79H206.41z"/>
		</g>
	</g>
</g>
<g>
	<path class="st3" d="M338.87,280.5H218.13c-19.12,0-34.63-15.5-34.63-34.63v-0.75c0-19.12,15.5-34.63,34.63-34.63h120.75
		c19.12,0,34.63,15.5,34.63,34.63v0.75C373.5,265,358,280.5,338.87,280.5z"/>
	<g>
		<g>
			<path d="M216.28,267.58c0.04-0.53,0.06-1.31,0.06-2v-9.37h1.4v4.87h0.03c0.49-0.87,1.39-1.42,2.64-1.42
				c1.92,0,3.27,1.6,3.27,3.94c0,2.78-1.76,4.15-3.49,4.15c-1.12,0-2.01-0.44-2.59-1.45h-0.04l-0.07,1.27H216.28z M217.74,264.48
				c0,0.17,0.02,0.35,0.06,0.51c0.26,0.98,1.09,1.65,2.11,1.65c1.48,0,2.35-1.2,2.35-2.98c0-1.56-0.8-2.89-2.31-2.89
				c-0.95,0-1.85,0.67-2.13,1.73c-0.04,0.17-0.08,0.36-0.08,0.59V264.48z"/>
			<path d="M227.02,257.65c0,0.48-0.34,0.88-0.9,0.88c-0.51,0-0.85-0.4-0.85-0.88c0-0.48,0.36-0.88,0.88-0.88
				C226.68,256.77,227.02,257.16,227.02,257.65z M225.45,267.58v-7.74h1.4v7.74H225.45z"/>
			<path d="M229.19,256.21h1.4v11.36h-1.4V256.21z"/>
			<path d="M232.97,256.21h1.4v11.36h-1.4V256.21z"/>
			<path d="M237.53,263.96c0.03,1.9,1.24,2.69,2.65,2.69c1.01,0,1.62-0.18,2.14-0.4l0.25,1c-0.49,0.23-1.35,0.49-2.58,0.49
				c-2.38,0-3.81-1.58-3.81-3.91c0-2.35,1.38-4.18,3.64-4.18c2.53,0,3.19,2.22,3.19,3.64c0,0.3-0.02,0.51-0.05,0.66H237.53z
				 M241.65,262.95c0.01-0.89-0.36-2.28-1.94-2.28c-1.44,0-2.05,1.3-2.16,2.28H241.65z"/>
			<path d="M251.44,256.21v9.37c0,0.69,0.03,1.46,0.06,2h-1.25l-0.07-1.34h-0.04c-0.43,0.86-1.36,1.51-2.63,1.51
				c-1.88,0-3.32-1.59-3.32-3.93c-0.01-2.59,1.59-4.16,3.48-4.16c1.19,0,1.99,0.56,2.34,1.17h0.03v-4.62H251.44z M250.04,262.99
				c0-0.18-0.02-0.42-0.06-0.6c-0.22-0.89-0.98-1.62-2.04-1.62c-1.46,0-2.33,1.28-2.33,2.98c0,1.57,0.78,2.88,2.3,2.88
				c0.94,0,1.8-0.64,2.06-1.69c0.05-0.19,0.07-0.38,0.07-0.6V262.99z"/>
			<path d="M253.64,265.88c0.62,0.39,1.53,0.7,2.49,0.7c1.42,0,2.26-0.74,2.26-1.84c0-1-0.58-1.59-2.04-2.13
				c-1.76-0.62-2.85-1.55-2.85-3.06c0-1.68,1.4-2.93,3.5-2.93c1.1,0,1.91,0.25,2.38,0.52l-0.39,1.14c-0.34-0.2-1.07-0.51-2.04-0.51
				c-1.48,0-2.04,0.88-2.04,1.61c0,1,0.66,1.5,2.15,2.07c1.83,0.72,2.75,1.6,2.75,3.18c0,1.65-1.22,3.11-3.78,3.11
				c-1.04,0-2.18-0.31-2.76-0.7L253.64,265.88z"/>
			<path d="M262.46,263.96c0.03,1.9,1.24,2.69,2.65,2.69c1.01,0,1.62-0.18,2.14-0.4l0.25,1c-0.49,0.23-1.35,0.49-2.58,0.49
				c-2.38,0-3.81-1.58-3.81-3.91c0-2.35,1.38-4.18,3.64-4.18c2.53,0,3.19,2.22,3.19,3.64c0,0.3-0.02,0.51-0.05,0.66H262.46z
				 M266.58,262.95c0.01-0.89-0.36-2.28-1.94-2.28c-1.44,0-2.05,1.3-2.16,2.28H266.58z"/>
			<path d="M269.68,262.25c0-0.91-0.02-1.69-0.06-2.41h1.23l0.05,1.52h0.05c0.36-1.04,1.21-1.69,2.16-1.69
				c0.15,0,0.26,0.01,0.39,0.04v1.32c-0.14-0.03-0.29-0.04-0.48-0.04c-0.99,0-1.69,0.75-1.88,1.8c-0.04,0.2-0.06,0.43-0.06,0.66
				v4.14h-1.4V262.25z"/>
			<path d="M275.46,259.84l1.52,4.34c0.26,0.72,0.46,1.36,0.63,2h0.04c0.18-0.64,0.4-1.29,0.65-2l1.51-4.34h1.47l-3.05,7.74h-1.34
				l-2.95-7.74H275.46z"/>
			<path d="M284.19,257.65c0,0.48-0.34,0.88-0.9,0.88c-0.51,0-0.85-0.4-0.85-0.88c0-0.48,0.36-0.88,0.88-0.88
				C283.84,256.77,284.18,257.16,284.19,257.65z M282.61,267.58v-7.74h1.4v7.74H282.61z"/>
			<path d="M291.88,267.3c-0.37,0.18-1.18,0.45-2.22,0.45c-2.33,0-3.86-1.59-3.86-3.96c0-2.39,1.63-4.13,4.16-4.13
				c0.83,0,1.58,0.21,1.96,0.41l-0.31,1.08c-0.35-0.18-0.87-0.37-1.65-0.37c-1.77,0-2.73,1.32-2.73,2.93c0,1.79,1.15,2.9,2.7,2.9
				c0.79,0,1.33-0.2,1.72-0.37L291.88,267.3z"/>
			<path d="M294.31,263.96c0.03,1.9,1.24,2.69,2.65,2.69c1.01,0,1.62-0.18,2.14-0.4l0.25,1c-0.49,0.23-1.35,0.49-2.58,0.49
				c-2.38,0-3.81-1.58-3.81-3.91c0-2.35,1.38-4.18,3.64-4.18c2.53,0,3.19,2.22,3.19,3.64c0,0.3-0.02,0.51-0.05,0.66H294.31z
				 M298.43,262.95c0.01-0.89-0.36-2.28-1.94-2.28c-1.44,0-2.05,1.3-2.16,2.28H298.43z"/>
			<path d="M302.98,256.79v10.79h-1.4v-10.79H302.98z"/>
			<path d="M307.06,257.61v2.23h2.02v1.07h-2.02v4.17c0,0.96,0.28,1.51,1.06,1.51c0.36,0,0.63-0.04,0.82-0.1l0.06,1.07
				c-0.27,0.11-0.71,0.19-1.26,0.19c-0.65,0-1.18-0.21-1.52-0.6c-0.39-0.43-0.55-1.11-0.55-2.02v-4.23h-1.2v-1.07h1.2v-1.87
				L307.06,257.61z"/>
			<path d="M311.45,263.96c0.03,1.9,1.24,2.69,2.65,2.69c1.01,0,1.62-0.18,2.14-0.4l0.25,1c-0.49,0.23-1.35,0.49-2.58,0.49
				c-2.38,0-3.81-1.58-3.81-3.91c0-2.35,1.38-4.18,3.64-4.18c2.53,0,3.19,2.22,3.19,3.64c0,0.3-0.02,0.51-0.05,0.66H311.45z
				 M315.57,262.95c0.01-0.89-0.36-2.28-1.94-2.28c-1.44,0-2.05,1.3-2.16,2.28H315.57z"/>
			<path d="M318.68,261.93c0-0.81-0.03-1.45-0.06-2.09h1.22l0.07,1.25h0.04c0.43-0.74,1.15-1.42,2.44-1.42
				c1.05,0,1.85,0.64,2.18,1.55h0.03c0.25-0.44,0.55-0.77,0.87-1.01c0.47-0.35,0.97-0.54,1.7-0.54c1.03,0,2.56,0.67,2.56,3.36v4.56
				h-1.37v-4.38c0-1.5-0.55-2.39-1.68-2.39c-0.81,0-1.43,0.59-1.68,1.27c-0.07,0.2-0.12,0.46-0.12,0.71v4.79h-1.37v-4.65
				c0-1.23-0.54-2.12-1.61-2.12c-0.88,0-1.52,0.7-1.75,1.41c-0.07,0.21-0.11,0.45-0.11,0.69v4.67h-1.37V261.93z"/>
		</g>
	</g>
	<g>
		<g>
			<path class="st5" d="M268.82,221.92c0.67-0.12,1.55-0.22,2.68-0.22c1.37,0,2.38,0.32,3.02,0.9c0.59,0.52,0.95,1.3,0.95,2.26
				c0,0.98-0.29,1.75-0.84,2.31c-0.74,0.79-1.94,1.18-3.3,1.18c-0.42,0-0.81-0.02-1.13-0.1v4.33h-1.39V221.92z M270.21,227.12
				c0.31,0.09,0.7,0.12,1.16,0.12c1.69,0,2.71-0.83,2.71-2.3c0-1.43-1.02-2.13-2.55-2.13c-0.61,0-1.07,0.06-1.32,0.11V227.12z"/>
		</g>
	</g>
</g>
<g>
	<path class="st3" d="M346.87,385.5H226.13c-19.12,0-34.63-15.5-34.63-34.63v-0.75c0-19.12,15.5-34.63,34.63-34.63h120.75
		c19.12,0,34.63,15.5,34.63,34.63v0.75C381.5,370,366,385.5,346.87,385.5z"/>
	<g>
		<g>
			<path d="M224.95,370.62c0.04-0.53,0.06-1.31,0.06-2v-9.37h1.4v4.87h0.03c0.49-0.87,1.39-1.42,2.64-1.42
				c1.92,0,3.27,1.6,3.27,3.94c0,2.78-1.76,4.15-3.49,4.15c-1.12,0-2.01-0.44-2.59-1.45h-0.04l-0.07,1.27H224.95z M226.42,367.52
				c0,0.17,0.02,0.35,0.06,0.51c0.26,0.98,1.09,1.65,2.11,1.65c1.48,0,2.35-1.2,2.35-2.98c0-1.56-0.8-2.89-2.31-2.89
				c-0.95,0-1.85,0.67-2.13,1.73c-0.04,0.17-0.08,0.36-0.08,0.59V367.52z"/>
			<path d="M235.7,360.69c0,0.48-0.34,0.88-0.9,0.88c-0.51,0-0.85-0.4-0.85-0.88c0-0.48,0.36-0.88,0.88-0.88
				C235.35,359.82,235.69,360.2,235.7,360.69z M234.12,370.62v-7.74h1.4v7.74H234.12z"/>
			<path d="M237.87,359.26h1.4v11.36h-1.4V359.26z"/>
			<path d="M241.64,359.26h1.4v11.36h-1.4V359.26z"/>
			<path d="M246.21,367c0.03,1.9,1.24,2.69,2.65,2.69c1.01,0,1.62-0.18,2.14-0.4l0.25,1c-0.49,0.23-1.35,0.49-2.58,0.49
				c-2.38,0-3.81-1.58-3.81-3.91c0-2.35,1.38-4.18,3.64-4.18c2.53,0,3.19,2.22,3.19,3.64c0,0.3-0.02,0.51-0.05,0.66H246.21z
				 M250.33,365.99c0.01-0.89-0.36-2.28-1.94-2.28c-1.44,0-2.05,1.3-2.16,2.28H250.33z"/>
			<path d="M260.12,359.26v9.37c0,0.69,0.03,1.46,0.06,2h-1.25l-0.07-1.34h-0.04c-0.43,0.87-1.36,1.52-2.63,1.52
				c-1.88,0-3.32-1.59-3.32-3.93c-0.01-2.59,1.59-4.16,3.48-4.16c1.19,0,1.99,0.56,2.34,1.17h0.03v-4.62H260.12z M258.72,366.03
				c0-0.18-0.02-0.42-0.06-0.6c-0.22-0.89-0.98-1.62-2.04-1.62c-1.46,0-2.33,1.28-2.33,2.98c0,1.57,0.78,2.88,2.3,2.88
				c0.94,0,1.8-0.64,2.06-1.69c0.05-0.19,0.07-0.38,0.07-0.6V366.03z"/>
			<path d="M262.32,368.92c0.62,0.39,1.53,0.7,2.49,0.7c1.42,0,2.26-0.74,2.26-1.84c0-1-0.58-1.59-2.04-2.13
				c-1.76-0.62-2.85-1.55-2.85-3.06c0-1.68,1.4-2.93,3.5-2.93c1.1,0,1.91,0.25,2.38,0.52l-0.39,1.14c-0.34-0.2-1.07-0.51-2.04-0.51
				c-1.48,0-2.04,0.88-2.04,1.61c0,1,0.66,1.5,2.15,2.07c1.83,0.72,2.75,1.6,2.75,3.18c0,1.65-1.22,3.11-3.78,3.11
				c-1.04,0-2.18-0.31-2.76-0.7L262.32,368.92z"/>
			<path d="M271.13,367c0.03,1.9,1.24,2.69,2.65,2.69c1.01,0,1.62-0.18,2.14-0.4l0.25,1c-0.49,0.23-1.35,0.49-2.58,0.49
				c-2.38,0-3.81-1.58-3.81-3.91c0-2.35,1.38-4.18,3.64-4.18c2.53,0,3.19,2.22,3.19,3.64c0,0.3-0.02,0.51-0.05,0.66H271.13z
				 M275.26,365.99c0.01-0.89-0.36-2.28-1.94-2.28c-1.44,0-2.05,1.3-2.16,2.28H275.26z"/>
			<path d="M278.36,365.29c0-0.91-0.02-1.69-0.06-2.41h1.23l0.05,1.52h0.05c0.36-1.04,1.21-1.69,2.16-1.69
				c0.15,0,0.26,0.01,0.39,0.04v1.32c-0.14-0.03-0.29-0.04-0.48-0.04c-0.99,0-1.69,0.75-1.88,1.8c-0.04,0.2-0.06,0.43-0.06,0.66
				v4.14h-1.4V365.29z"/>
			<path d="M284.14,362.88l1.52,4.34c0.26,0.72,0.46,1.36,0.63,2h0.04c0.18-0.64,0.4-1.29,0.65-2l1.51-4.34h1.47l-3.05,7.74h-1.34
				l-2.95-7.74H284.14z"/>
			<path d="M292.86,360.69c0,0.48-0.34,0.88-0.9,0.88c-0.51,0-0.85-0.4-0.85-0.88c0-0.48,0.36-0.88,0.88-0.88
				C292.52,359.82,292.86,360.2,292.86,360.69z M291.29,370.62v-7.74h1.4v7.74H291.29z"/>
			<path d="M300.55,370.34c-0.37,0.18-1.18,0.45-2.22,0.45c-2.33,0-3.86-1.59-3.86-3.96c0-2.39,1.63-4.13,4.16-4.13
				c0.83,0,1.58,0.21,1.96,0.41l-0.31,1.08c-0.35-0.18-0.87-0.37-1.65-0.37c-1.77,0-2.73,1.32-2.73,2.93c0,1.79,1.15,2.9,2.7,2.9
				c0.79,0,1.33-0.2,1.72-0.37L300.55,370.34z"/>
			<path d="M302.99,367c0.03,1.9,1.24,2.69,2.65,2.69c1.01,0,1.62-0.18,2.14-0.4l0.25,1c-0.49,0.23-1.35,0.49-2.58,0.49
				c-2.38,0-3.81-1.58-3.81-3.91c0-2.35,1.38-4.18,3.64-4.18c2.53,0,3.19,2.22,3.19,3.64c0,0.3-0.02,0.51-0.05,0.66H302.99z
				 M307.11,365.99c0.01-0.89-0.36-2.28-1.94-2.28c-1.44,0-2.05,1.3-2.16,2.28H307.11z"/>
			<path d="M310.26,359.96c0.67-0.12,1.55-0.22,2.68-0.22c1.37,0,2.38,0.32,3.02,0.9c0.59,0.52,0.95,1.3,0.95,2.26
				c0,0.98-0.29,1.75-0.84,2.31c-0.74,0.79-1.94,1.18-3.3,1.18c-0.42,0-0.81-0.02-1.13-0.1v4.33h-1.39V359.96z M311.65,365.16
				c0.31,0.09,0.7,0.12,1.16,0.12c1.69,0,2.71-0.83,2.71-2.3c0-1.43-1.02-2.13-2.55-2.13c-0.61,0-1.07,0.06-1.32,0.11V365.16z"/>
			<path d="M318.73,365.29c0-0.91-0.02-1.69-0.06-2.41h1.23l0.05,1.52H320c0.36-1.04,1.21-1.69,2.16-1.69
				c0.15,0,0.26,0.01,0.39,0.04v1.32c-0.14-0.03-0.29-0.04-0.48-0.04c-0.99,0-1.69,0.75-1.88,1.8c-0.04,0.2-0.06,0.43-0.06,0.66
				v4.14h-1.4V365.29z"/>
			<path d="M325.54,360.69c0,0.48-0.34,0.88-0.9,0.88c-0.51,0-0.85-0.4-0.85-0.88c0-0.48,0.36-0.88,0.88-0.88
				C325.19,359.82,325.53,360.2,325.54,360.69z M323.96,370.62v-7.74h1.4v7.74H323.96z"/>
			<path d="M333.23,370.34c-0.37,0.18-1.18,0.45-2.22,0.45c-2.33,0-3.86-1.59-3.86-3.96c0-2.39,1.63-4.13,4.16-4.13
				c0.83,0,1.58,0.21,1.96,0.41l-0.31,1.08c-0.35-0.18-0.87-0.37-1.65-0.37c-1.77,0-2.73,1.32-2.73,2.93c0,1.79,1.15,2.9,2.7,2.9
				c0.79,0,1.33-0.2,1.72-0.37L333.23,370.34z"/>
			<path d="M335.66,367c0.03,1.9,1.24,2.69,2.65,2.69c1.01,0,1.62-0.18,2.14-0.4l0.25,1c-0.49,0.23-1.35,0.49-2.58,0.49
				c-2.38,0-3.81-1.58-3.81-3.91c0-2.35,1.38-4.18,3.64-4.18c2.53,0,3.19,2.22,3.19,3.64c0,0.3-0.02,0.51-0.05,0.66H335.66z
				 M339.78,365.99c0.01-0.89-0.36-2.28-1.94-2.28c-1.44,0-2.05,1.3-2.16,2.28H339.78z"/>
		</g>
	</g>
	<g>
		<g>
			<path class="st5" d="M277.08,327.98c0.67-0.12,1.55-0.22,2.68-0.22c1.37,0,2.38,0.32,3.02,0.9c0.59,0.52,0.95,1.3,0.95,2.26
				c0,0.98-0.29,1.75-0.84,2.31c-0.74,0.79-1.94,1.18-3.3,1.18c-0.42,0-0.81-0.02-1.13-0.1v4.33h-1.39V327.98z M278.47,333.18
				c0.31,0.09,0.7,0.12,1.16,0.12c1.69,0,2.71-0.83,2.71-2.3c0-1.43-1.02-2.13-2.55-2.13c-0.61,0-1.07,0.06-1.32,0.11V333.18z"/>
		</g>
	</g>
</g>
<g>
	<path class="st3" d="M523.87,280.5h-80.75c-19.12,0-34.63-15.5-34.63-34.63v-0.75c0-19.12,15.5-34.63,34.63-34.63h80.75
		c19.12,0,34.63,15.5,34.63,34.63v0.75C558.5,265,543,280.5,523.87,280.5z"/>
	<g>
		<g>
			<path d="M446.06,261.19c0-0.91-0.02-1.69-0.06-2.41h1.23l0.05,1.52h0.05c0.36-1.04,1.21-1.69,2.16-1.69
				c0.15,0,0.26,0.01,0.39,0.04v1.32c-0.14-0.03-0.29-0.04-0.48-0.04c-0.99,0-1.69,0.75-1.88,1.8c-0.04,0.2-0.06,0.43-0.06,0.66
				v4.14h-1.4V261.19z"/>
			<path d="M452.08,262.91c0.03,1.9,1.24,2.69,2.65,2.69c1.01,0,1.62-0.18,2.14-0.4l0.25,1c-0.49,0.23-1.35,0.49-2.58,0.49
				c-2.38,0-3.81-1.58-3.81-3.91c0-2.35,1.38-4.18,3.64-4.18c2.53,0,3.19,2.22,3.19,3.64c0,0.3-0.02,0.51-0.05,0.66H452.08z
				 M456.2,261.89c0.01-0.89-0.36-2.28-1.94-2.28c-1.44,0-2.05,1.3-2.16,2.28H456.2z"/>
			<path d="M459.31,260.87c0-0.81-0.03-1.45-0.06-2.09h1.22l0.07,1.25h0.04c0.43-0.74,1.15-1.42,2.44-1.42
				c1.05,0,1.85,0.64,2.18,1.55h0.03c0.25-0.44,0.55-0.77,0.87-1.01c0.47-0.35,0.97-0.54,1.7-0.54c1.03,0,2.56,0.67,2.56,3.36v4.56
				H469v-4.38c0-1.5-0.55-2.39-1.68-2.39c-0.81,0-1.43,0.59-1.68,1.27c-0.07,0.2-0.12,0.46-0.12,0.71v4.79h-1.37v-4.65
				c0-1.23-0.54-2.12-1.61-2.12c-0.88,0-1.52,0.7-1.75,1.41c-0.07,0.21-0.11,0.45-0.11,0.69v4.67h-1.37V260.87z"/>
			<path d="M479.66,262.58c0,2.87-1.99,4.12-3.85,4.12c-2.1,0-3.72-1.53-3.72-3.99c0-2.59,1.7-4.11,3.84-4.11
				C478.16,258.61,479.66,260.22,479.66,262.58z M473.52,262.67c0,1.7,0.97,2.98,2.35,2.98c1.35,0,2.36-1.26,2.36-3.02
				c0-1.31-0.66-2.97-2.33-2.97C474.24,259.66,473.52,261.2,473.52,262.67z"/>
			<path d="M481.98,258.78l1.52,4.34c0.26,0.72,0.46,1.36,0.63,2h0.04c0.18-0.64,0.4-1.29,0.65-2l1.51-4.34h1.47l-3.05,7.74h-1.34
				l-2.95-7.74H481.98z"/>
			<path d="M489.92,262.91c0.03,1.9,1.24,2.69,2.65,2.69c1.01,0,1.62-0.18,2.14-0.4l0.25,1c-0.49,0.23-1.35,0.49-2.58,0.49
				c-2.38,0-3.81-1.58-3.81-3.91c0-2.35,1.38-4.18,3.64-4.18c2.53,0,3.19,2.22,3.19,3.64c0,0.3-0.02,0.51-0.05,0.66H489.92z
				 M494.04,261.89c0.01-0.89-0.36-2.28-1.94-2.28c-1.44,0-2.05,1.3-2.16,2.28H494.04z"/>
			<path d="M497.19,255.88c0.62-0.13,1.58-0.23,2.54-0.23c1.4,0,2.29,0.24,2.96,0.78c0.56,0.42,0.9,1.06,0.9,1.91
				c0,1.04-0.69,1.96-1.82,2.36v0.04c1.03,0.25,2.23,1.09,2.23,2.71c0,0.92-0.37,1.63-0.92,2.15c-0.74,0.7-1.96,1.01-3.72,1.01
				c-0.97,0-1.7-0.07-2.16-0.12V255.88z M498.58,260.3h1.28c1.46,0,2.32-0.78,2.32-1.82c0-1.25-0.95-1.76-2.36-1.76
				c-0.65,0-1.01,0.05-1.24,0.1V260.3z M498.58,265.46c0.29,0.06,0.67,0.07,1.17,0.07c1.45,0,2.78-0.53,2.78-2.1
				c0-1.47-1.27-2.08-2.79-2.08h-1.16V265.46z"/>
			<path d="M507.51,256.55v2.23h2.02v1.07h-2.02v4.17c0,0.96,0.28,1.51,1.06,1.51c0.36,0,0.63-0.04,0.82-0.1l0.06,1.07
				c-0.27,0.11-0.71,0.19-1.26,0.19c-0.65,0-1.18-0.21-1.52-0.6c-0.39-0.43-0.55-1.11-0.55-2.02v-4.23h-1.2v-1.07h1.2v-1.87
				L507.51,256.55z"/>
			<path d="M511.12,260.87c0-0.81-0.03-1.45-0.06-2.09h1.24l0.08,1.27h0.04c0.38-0.73,1.28-1.45,2.56-1.45
				c1.06,0,2.73,0.64,2.73,3.3v4.62h-1.4v-4.46c0-1.25-0.47-2.3-1.79-2.3c-0.92,0-1.64,0.66-1.9,1.44c-0.06,0.17-0.1,0.42-0.1,0.65
				v4.67h-1.4V260.87z"/>
		</g>
	</g>
	<g>
		<g>
			<path class="st4" d="M454.62,226.41c0.62-0.13,1.58-0.23,2.54-0.23c1.4,0,2.29,0.24,2.96,0.78c0.56,0.42,0.9,1.06,0.9,1.91
				c0,1.04-0.69,1.96-1.82,2.36v0.04c1.03,0.25,2.23,1.09,2.23,2.71c0,0.92-0.37,1.63-0.92,2.15c-0.74,0.7-1.96,1.01-3.72,1.01
				c-0.97,0-1.7-0.07-2.16-0.12V226.41z M456.01,230.83h1.28c1.46,0,2.32-0.78,2.32-1.82c0-1.25-0.95-1.76-2.36-1.76
				c-0.65,0-1.01,0.05-1.24,0.1V230.83z M456.01,235.99c0.29,0.06,0.67,0.07,1.17,0.07c1.45,0,2.78-0.53,2.78-2.1
				c0-1.47-1.27-2.08-2.79-2.08h-1.16V235.99z"/>
			<path class="st4" d="M464.69,226.26v6.39c0,2.41,1.07,3.43,2.52,3.43c1.59,0,2.62-1.06,2.62-3.43v-6.39h1.4v6.29
				c0,3.32-1.74,4.67-4.08,4.67c-2.2,0-3.86-1.26-3.86-4.61v-6.36H464.69z"/>
			<path class="st4" d="M475.7,227.44h-3.29v-1.18h7.99v1.18h-3.3v9.61h-1.4V227.44z"/>
			<path class="st4" d="M483.65,227.44h-3.29v-1.18h7.99v1.18h-3.3v9.61h-1.4V227.44z"/>
			<path class="st4" d="M498.77,231.55c0,3.7-2.26,5.68-5.01,5.68c-2.86,0-4.85-2.22-4.85-5.48c0-3.42,2.12-5.67,5-5.67
				C496.86,226.09,498.77,228.34,498.77,231.55z M490.39,231.72c0,2.31,1.25,4.37,3.45,4.37c2.21,0,3.46-2.03,3.46-4.48
				c0-2.15-1.12-4.39-3.44-4.39C491.54,227.22,490.39,229.36,490.39,231.72z"/>
			<path class="st4" d="M500.57,237.05v-10.79h1.53l3.46,5.45c0.79,1.27,1.42,2.4,1.92,3.51l0.04-0.02
				c-0.13-1.44-0.15-2.76-0.15-4.43v-4.52h1.31v10.79h-1.42l-3.43-5.47c-0.74-1.21-1.47-2.44-2.01-3.61l-0.05,0.02
				c0.08,1.37,0.1,2.67,0.1,4.45v4.61H500.57z"/>
		</g>
	</g>
</g>
<g>
	<g>
		<polygon class="st6" points="173.5,93.72 156.5,90.5 166.01,104.95 168.2,101.68 187.94,114.84 191.06,110.16 171.32,97 		"/>
	</g>
</g>
<g>
	<g>
		<polygon class="st6" points="307.66,196.12 278.5,176.5 298.12,205.66 300.9,202.88 304.7,206.68 310.51,212.49 314.49,208.51 
			308.68,202.7 304.88,198.9 		"/>
	</g>
</g>
<g>
	<g>
		<polygon class="st6" points="387.56,238.75 373.5,245.5 387.56,252.25 387.56,248.31 408.5,248.31 408.5,242.69 387.56,242.69 		
			"/>
	</g>
</g>
<g>
	<g>
		<polygon class="st6" points="168.88,222.13 148.5,193.5 156.59,227.7 160.17,226.08 203.94,322.66 209.06,320.34 165.3,223.76 		
			"/>
	</g>
</g>
</svg>
